<?xml version="1.0" encoding="UTF-8"?>
<!DOCTYPE svg PUBLIC "-//W3C//DTD SVG 1.1//EN" "http://www.w3.org/Graphics/SVG/1.1/DTD/svg11.dtd">
<!-- Creator: CorelDRAW X7 -->
<svg xmlns="http://www.w3.org/2000/svg" xml:space="preserve" width="1.29556in" height="0.518988in" version="1.1" style="shape-rendering:geometricPrecision; text-rendering:geometricPrecision; image-rendering:optimizeQuality; fill-rule:evenodd; clip-rule:evenodd"
viewBox="0 0 1533 614"
 xmlns:xlink="http://www.w3.org/1999/xlink">
 <defs>
  <style type="text/css">
   <![CDATA[
    .str0 {stroke:#0E2431;stroke-width:3.94176}
    .fil0 {fill:#0E2431}
    .fil2 {fill:#CCCCCC}
    .fil1 {fill:#E6E6E6}
   ]]>
  </style>
 </defs>
 <g id="Layer_x0020_1">
  <metadata id="CorelCorpID_0Corel-Layer"/>
  <path class="fil0" d="M193 259c14,0 25,-11 25,-24l0 -96c0,-43 35,-78 79,-78 43,0 78,35 78,78l0 96c0,13 11,24 25,24 14,0 25,-11 25,-24l0 -96c0,-71 -58,-128 -128,-128 -71,0 -129,57 -129,128l0 96c0,13 11,24 25,24zm389 -55l-132 0 0 31c0,27 -22,49 -50,49 -27,0 -50,-22 -50,-49l0 -31 -107 0 0 31c0,27 -23,49 -50,49 -27,0 -50,-22 -50,-49l0 -31 -133 0c-7,0 -11,5 -10,12l87 351c6,20 27,36 47,36l324 0c20,0 41,-16 46,-36l87 -351c2,-7 -2,-12 -9,-12z"/>
  <rect class="fil1" x="326" y="363" width="33.2264" height="32.9365" rx="7" ry="7"/>
  <rect class="fil1" x="279" y="363" width="33.2264" height="32.9365" rx="7" ry="7"/>
  <rect class="fil1" x="232" y="363" width="33.2264" height="32.9365" rx="7" ry="7"/>
  <rect class="fil1" x="326" y="409" width="33.2264" height="32.9365" rx="7" ry="7"/>
  <rect class="fil1" x="232" y="409" width="33.2264" height="32.9365" rx="7" ry="7"/>
  <rect class="fil1" x="326" y="456" width="33.2264" height="32.9365" rx="7" ry="7"/>
  <rect class="fil1" x="279" y="456" width="33.2264" height="32.9365" rx="7" ry="7"/>
  <rect class="fil1" x="232" y="456" width="33.2264" height="32.9365" rx="7" ry="7"/>
  <path class="fil0" d="M1119 248c14,0 25,-11 25,-25l0 -96c0,-43 37,-78 82,-78 45,0 82,35 82,78l0 96c0,14 12,25 26,25 14,0 26,-11 26,-25l0 -96c0,-70 -60,-127 -134,-127 -73,0 -133,57 -133,127l0 96c0,14 11,25 26,25zm404 -55l-137 0 0 30c0,28 -24,50 -52,50 -29,0 -52,-22 -52,-50l0 -30 -112 0 0 30c0,28 -23,50 -51,50 -29,0 -52,-22 -52,-50l0 -30 -139 0c-7,0 -11,5 -10,12l91 351c5,20 27,36 48,36l337 0c21,0 43,-16 48,-36l91 -351c2,-7 -3,-12 -10,-12z"/>
  <path class="fil2" d="M1494 488c0,-69 -57,-126 -126,-126 -70,0 -126,57 -126,126 0,70 56,126 126,126 69,0 126,-56 126,-126z"/>
  <path class="fil2" d="M1268 532c0,-26 -21,-47 -48,-47 -26,0 -47,21 -47,47 0,27 21,48 47,48 27,0 48,-21 48,-48z"/>
  <path class="fil0" d="M1336 463l-16 0c-3,0 -6,-3 -6,-6l0 -16c0,-4 3,-6 6,-6l16 0c4,0 6,2 6,6l0 16c0,3 -2,6 -6,6zm80 79l-17 0c-3,0 -5,-3 -5,-6l0 -16c0,-3 2,-6 5,-6l17 0c3,0 5,3 5,6l0 16c0,3 -2,6 -5,6zm0 -40l-17 0c-3,0 -5,-2 -5,-6l0 -16c0,-3 2,-6 5,-6l17 0c3,0 5,3 5,6l0 16c0,4 -2,6 -5,6zm0 -39l-17 0c-3,0 -5,-3 -5,-6l0 -16c0,-4 2,-6 5,-6l17 0c3,0 5,2 5,6l0 16c0,3 -2,6 -5,6zm-40 0l-16 0c-3,0 -6,-3 -6,-6l0 -16c0,-4 3,-6 6,-6l16 0c3,0 6,2 6,6l0 16c0,3 -3,6 -6,6zm0 39l-16 0c-3,0 -6,-2 -6,-6l0 -16c0,-3 3,-6 6,-6l16 0c3,0 6,3 6,6l0 16c0,4 -3,6 -6,6zm0 40l-16 0c-3,0 -6,-3 -6,-6l0 -16c0,-3 3,-6 6,-6l16 0c3,0 6,3 6,6l0 16c0,3 -3,6 -6,6zm-40 0l-16 0c-3,0 -6,-3 -6,-6l0 -16c0,-3 3,-6 6,-6l16 0c4,0 6,3 6,6l0 16c0,3 -2,6 -6,6zm0 -40l-16 0c-3,0 -6,-2 -6,-6l0 -16c0,-3 3,-6 6,-6l16 0c4,0 6,3 6,6l0 16c0,4 -2,6 -6,6z"/>
  <path class="fil0 str0" d="M1368 376c-62,0 -112,50 -112,112 0,62 50,112 112,112 62,0 112,-50 112,-112 0,-62 -50,-112 -112,-112zm0 9c57,0 103,46 103,103 0,57 -46,103 -103,103 -57,0 -103,-46 -103,-103 0,-57 46,-103 103,-103z"/>
  <path class="fil0" d="M1209 562c0,0 -36,-22 20,-66 22,41 -23,42 -7,73 -26,-24 7,-34 4,-54 -21,16 -26,30 -17,47z"/>
  <path class="fil2" d="M1231 462c0,-8 -7,-14 -14,-14 -8,0 -14,6 -14,14 0,8 6,14 14,14 7,0 14,-6 14,-14z"/>
  <path class="fil2" d="M1162 564c0,-4 -3,-7 -7,-7 -4,0 -6,3 -6,7 0,3 2,6 6,6 4,0 7,-3 7,-6z"/>
  <path class="fil2" d="M1465 353c0,-8 -6,-14 -14,-14 -7,0 -13,6 -13,14 0,7 6,13 13,13 8,0 14,-6 14,-13z"/>
  <path class="fil1" d="M291 443c0,0 -20,-13 12,-39 13,25 -13,25 -4,43 -15,-14 4,-20 2,-31 -12,9 -15,17 -10,27z"/>
 </g>
</svg>
